# xmcd
#
# Track frame offsets:
#	150
#	23694
#	43995
#	81688
#	114623
#	130992
#	146529
#	185302
#	203139
#	217630
#	235303
#	256196
#	272333
#	294705
#	303452
#
# Disc length: 4307 seconds
#
# Revision: 0
# Processed by: cddbd v1.5.1PL0 Copyright (c) Steve Scherf et al.
# Submitted via: EasyCDDAExtractor 7.5.0.1
#
DISCID=db10d10f
DTITLE=Various Artist - Ultimate New Orleans
DYEAR=2005
DGENRE=Blues
TTITLE0=Dejan's Olympia Brass Band - It Ain't My Fault
TTITLE1=Professor Longhair - Big Chief
TTITLE2=Rebirth Brass Band - Do Watcha Wanna
TTITLE3=Magnificent Sevenths - Bourbon St. Parade
TTITLE4=Rockin' Dopsie, Jr. - They All Ask'd For You
TTITLE5=Fernest Arceneuax - My Negress 
TTITLE6=Big Al Carson - Tell It Like It Is
TTITLE7=Johnny Adams - Reconsider Me
TTITLE8=Irma Thomas - Hip Shakin' Mama
TTITLE9=Marva Wright - Mr. Big Stuff
TTITLE10=Rockin' Dopsie, Jr. - Ooh Poo Pa Do
TTITLE11=Johnny Adams - Hell Yes I Cheated
TTITLE12=Magnificent Sevenths - Watermelon Man
TTITLE13=Zion Harmonizers - Have A Little Talk with Jesus
TTITLE14=Take Your Drunken Ass Home
EXTD=
EXTT0=
EXTT1=
EXTT2=
EXTT3=
EXTT4=
EXTT5=
EXTT6=
EXTT7=
EXTT8=
EXTT9=
EXTT10=
EXTT11=
EXTT12=
EXTT13=
EXTT14=
PLAYORDER=
